<?xml version="1.0" encoding="UTF-8"?>
<!DOCTYPE svg PUBLIC "-//W3C//DTD SVG 1.1//EN" "http://www.w3.org/Graphics/SVG/1.1/DTD/svg11.dtd">
<svg xmlns="http://www.w3.org/2000/svg" version="1.1" width="843px" height="596px" style="shape-rendering:geometricPrecision; text-rendering:geometricPrecision; image-rendering:optimizeQuality; fill-rule:evenodd; clip-rule:evenodd" xmlns:xlink="http://www.w3.org/1999/xlink">
<g><path style="opacity:0.816" fill="#b7702d" d="M 792.5,272.5 C 791.662,272.842 791.328,273.508 791.5,274.5C 767.905,230.077 731.905,200.91 683.5,187C 670.151,183.807 658.318,186.641 648,195.5C 645.49,199.199 643.657,203.199 642.5,207.5C 641.833,210.5 641.167,213.5 640.5,216.5C 635.595,184.573 649.261,171.073 681.5,176C 731.517,189.765 768.017,219.932 791,266.5C 791.813,268.436 792.313,270.436 792.5,272.5 Z"/></g>
<g><path style="opacity:0.173" fill="#4c3935" d="M 642.5,207.5 C 642.666,211.846 642.499,216.179 642,220.5C 641.209,219.255 640.709,217.922 640.5,216.5C 641.167,213.5 641.833,210.5 642.5,207.5 Z"/></g>
<g><path style="opacity:0.828" fill="#d88b28" d="M 675.5,216.5 C 671.691,217.035 668.024,218.035 664.5,219.5C 660.486,219.666 656.486,219.499 652.5,219C 653.252,218.329 653.586,217.496 653.5,216.5C 653.5,215.833 653.833,215.5 654.5,215.5C 657.567,215.43 659.9,214.096 661.5,211.5C 663.326,212.044 665.326,212.044 667.5,211.5C 673.036,212.907 678.703,214.073 684.5,215C 681.305,215.181 678.305,215.681 675.5,216.5 Z"/></g>
<g><path style="opacity:0.655" fill="#895f36" d="M 653.5,216.5 C 653.586,217.496 653.252,218.329 652.5,219C 656.486,219.499 660.486,219.666 664.5,219.5C 660.019,220.648 655.352,220.815 650.5,220C 651.163,218.482 652.163,217.315 653.5,216.5 Z"/></g>
<g><path style="opacity:0.973" fill="#bb792e" d="M 763.5,258.5 C 763.672,259.492 763.338,260.158 762.5,260.5C 743.386,238.101 719.386,223.601 690.5,217C 685.511,216.501 680.511,216.334 675.5,216.5C 678.305,215.681 681.305,215.181 684.5,215C 678.703,214.073 673.036,212.907 667.5,211.5C 665.326,212.044 663.326,212.044 661.5,211.5C 659.9,214.096 657.567,215.43 654.5,215.5C 655.716,213.549 657.382,212.049 659.5,211C 674.349,206.235 689.016,206.902 703.5,213C 727.818,222.639 747.818,237.806 763.5,258.5 Z"/></g>
<g><path style="opacity:0.973" fill="#ca842b" d="M 732.5,253.5 C 732.5,254.833 731.833,255.5 730.5,255.5C 728.46,253.823 726.46,252.156 724.5,250.5C 724.027,249.094 723.027,248.427 721.5,248.5C 710.414,241.21 698.247,236.877 685,235.5C 681.348,235.481 677.848,236.148 674.5,237.5C 671.482,237.665 668.482,237.498 665.5,237C 666.252,236.329 666.586,235.496 666.5,234.5C 668.89,231.972 671.89,230.472 675.5,230C 691.226,228.907 705.56,232.907 718.5,242C 723.647,245.32 728.314,249.153 732.5,253.5 Z"/></g>
<g><path style="opacity:0.655" fill="#8a5f35" d="M 666.5,234.5 C 666.586,235.496 666.252,236.329 665.5,237C 668.482,237.498 671.482,237.665 674.5,237.5C 671.024,238.643 667.358,238.81 663.5,238C 664.163,236.482 665.163,235.315 666.5,234.5 Z"/></g>
<g><path style="opacity:0.459" fill="#6c4d36" d="M 721.5,248.5 C 723.027,248.427 724.027,249.094 724.5,250.5C 722.973,250.573 721.973,249.906 721.5,248.5 Z"/></g>
<g><path style="opacity:0.82" fill="#c6792b" d="M 704.5,255.5 C 704.5,257.833 704.5,260.167 704.5,262.5C 698.5,262.5 692.5,262.5 686.5,262.5C 686.5,260.167 686.5,257.833 686.5,255.5C 687.92,251.281 690.92,249.281 695.5,249.5C 700.08,249.281 703.08,251.281 704.5,255.5 Z"/></g>
<g><path style="opacity:0.729" fill="#885d35" d="M 732.5,253.5 C 739.185,258.989 744.018,265.656 747,273.5C 742.343,266.678 736.843,260.678 730.5,255.5C 731.833,255.5 732.5,254.833 732.5,253.5 Z"/></g>
<g><path style="opacity:0.957" fill="#e39223" d="M 80.5,314.5 C 80.369,315.239 80.5357,315.906 81,316.5C 82.1882,315.437 82.6882,314.103 82.5,312.5C 88.5984,294.659 94.9318,276.992 101.5,259.5C 102.167,259.833 102.833,260.167 103.5,260.5C 110.401,277.864 116.735,295.53 122.5,313.5C 123.167,316.167 123.833,316.167 124.5,313.5C 129.507,295.141 134.674,276.808 140,258.5C 145.741,257.525 151.575,257.192 157.5,257.5C 147.786,293.689 137.453,329.689 126.5,365.5C 125.833,365.833 125.167,366.167 124.5,366.5C 117.107,346.655 110.107,326.655 103.5,306.5C 103.719,305.325 103.386,304.325 102.5,303.5C 101.702,303.957 101.369,304.624 101.5,305.5C 94.8929,325.655 87.8929,345.655 80.5,365.5C 79.8333,365.833 79.1667,366.167 78.5,366.5C 67.8393,330.529 57.1726,294.529 46.5,258.5C 52.5,257.167 58.5,257.167 64.5,258.5C 70.1472,277.091 75.4805,295.757 80.5,314.5 Z"/></g>
<g><path style="opacity:0.957" fill="#f09b1d" d="M 189.5,257.5 C 189.5,294.167 189.5,330.833 189.5,367.5C 184.167,367.5 178.833,367.5 173.5,367.5C 173.5,330.833 173.5,294.167 173.5,257.5C 178.833,257.5 184.167,257.5 189.5,257.5 Z"/></g>
<g><path style="opacity:0.196" fill="#433535" d="M 189.5,257.5 C 190.498,294.33 190.832,331.33 190.5,368.5C 184.642,368.822 178.975,368.489 173.5,367.5C 178.833,367.5 184.167,367.5 189.5,367.5C 189.5,330.833 189.5,294.167 189.5,257.5 Z"/></g>
<g><path style="opacity:0.957" fill="#eb9720" d="M 205.5,256.5 C 226.467,278.971 247.301,301.637 268,324.5C 268.5,302.169 268.667,279.836 268.5,257.5C 273.833,257.5 279.167,257.5 284.5,257.5C 284.171,286.407 284.505,315.24 285.5,344C 284.683,352.088 284.183,360.255 284,368.5C 263.568,345.311 242.901,322.311 222,299.5C 221.5,322.498 221.333,345.498 221.5,368.5C 216.167,368.5 210.833,368.5 205.5,368.5C 205.5,331.167 205.5,293.833 205.5,256.5 Z"/></g>
<g><path style="opacity:0.957" fill="#e39223" d="M 352.5,278.5 C 352.027,277.094 351.027,276.427 349.5,276.5C 341.416,272.341 333.416,272.508 325.5,277C 318.391,284.366 319.058,291.032 327.5,297C 336.167,302.333 344.833,307.667 353.5,313C 360.846,318.006 366.346,324.506 370,332.5C 372.471,348.059 366.638,359.225 352.5,366C 334.571,371.714 318.571,368.547 304.5,356.5C 304.5,354.5 303.5,353.5 301.5,353.5C 300.427,352.749 300.26,351.749 301,350.5C 304.682,346.651 308.515,342.984 312.5,339.5C 320.269,345.8 329.102,349.8 339,351.5C 341.544,350.929 344.044,350.262 346.5,349.5C 349.5,348.5 351.5,346.5 352.5,343.5C 352.66,336.988 349.993,331.822 344.5,328C 335.167,322 325.833,316 316.5,310C 301.692,298.942 298.859,285.442 308,269.5C 316.412,260.8 326.745,256.466 339,256.5C 352.88,256.523 364.047,262.023 372.5,273C 368.318,277.349 363.985,281.515 359.5,285.5C 356.812,283.479 354.479,281.146 352.5,278.5 Z"/></g>
<g><path style="opacity:0.957" fill="#f09a1e" d="M 403.5,296.5 C 419.325,297.496 435.325,297.83 451.5,297.5C 451.5,284.167 451.5,270.833 451.5,257.5C 456.5,257.5 461.5,257.5 466.5,257.5C 466.5,294.167 466.5,330.833 466.5,367.5C 461.5,367.5 456.5,367.5 451.5,367.5C 451.5,349.167 451.5,330.833 451.5,312.5C 435.325,312.17 419.325,312.504 403.5,313.5C 403.5,331.833 403.5,350.167 403.5,368.5C 398.167,368.5 392.833,368.5 387.5,368.5C 387.5,331.5 387.5,294.5 387.5,257.5C 392.833,257.5 398.167,257.5 403.5,257.5C 403.5,270.5 403.5,283.5 403.5,296.5 Z"/></g>
<g><path style="opacity:0.196" fill="#433535" d="M 466.5,257.5 C 467.498,294.33 467.832,331.33 467.5,368.5C 461.642,368.822 455.975,368.489 450.5,367.5C 450.833,367.5 451.167,367.5 451.5,367.5C 456.5,367.5 461.5,367.5 466.5,367.5C 466.5,330.833 466.5,294.167 466.5,257.5 Z"/></g>
<g><path style="opacity:0.957" fill="#e39223" d="M 609.5,319.5 C 609.027,318.094 608.027,317.427 606.5,317.5C 604.566,316.89 602.899,315.89 601.5,314.5C 601.027,313.094 600.027,312.427 598.5,312.5C 582.305,304.445 576.805,291.779 582,274.5C 582.377,273.058 583.21,272.058 584.5,271.5C 585.906,271.027 586.573,270.027 586.5,268.5C 589.089,267.581 591.089,265.914 592.5,263.5C 607.086,254.916 622.086,254.416 637.5,262C 641.8,265.298 645.8,268.965 649.5,273C 645.318,277.349 640.985,281.515 636.5,285.5C 632.54,281.038 627.874,277.538 622.5,275C 614.783,272.235 607.783,273.402 601.5,278.5C 595.602,285.619 596.602,291.786 604.5,297C 614.767,302.938 624.767,309.272 634.5,316C 648.867,327.317 651.367,340.817 642,356.5C 634.404,365.369 624.737,369.369 613,368.5C 599.202,368.433 587.535,363.433 578,353.5C 577.333,352.5 577.333,351.5 578,350.5C 581.682,346.651 585.515,342.984 589.5,339.5C 597.269,345.8 606.102,349.8 616,351.5C 631.75,346.915 633.583,339.082 621.5,328C 617.32,325.304 613.32,322.47 609.5,319.5 Z"/></g>
<g><path style="opacity:0.294" fill="#654936" d="M 103.5,260.5 C 102.833,260.167 102.167,259.833 101.5,259.5C 101.369,258.624 101.702,257.957 102.5,257.5C 103.386,258.325 103.719,259.325 103.5,260.5 Z"/></g>
<g><path style="opacity:0.957" fill="#e59422" d="M 561.5,367.5 C 555.208,368.053 549.208,367.386 543.5,365.5C 541.595,361.784 540.261,357.784 539.5,353.5C 534.208,352.171 528.542,351.504 522.5,351.5C 516.657,351.501 510.99,351.834 505.5,352.5C 504.226,357.323 502.559,361.99 500.5,366.5C 497.585,367.122 494.585,367.456 491.5,367.5C 488.41,367.478 485.743,366.812 483.5,365.5C 495.496,329.18 508.329,293.18 522,257.5C 535.857,293.902 549.023,330.569 561.5,367.5 Z M 532.5,335.5 C 525.833,335.5 519.167,335.5 512.5,335.5C 512.5,334.5 512.5,333.5 512.5,332.5C 515.933,324.383 519.099,316.049 522,307.5C 525.607,316.823 529.107,326.156 532.5,335.5 Z"/></g>
<g><path style="opacity:0.588" fill="#664935" d="M 763.5,258.5 C 766.514,262.005 769.181,265.838 771.5,270C 770.668,270.688 770.002,270.521 769.5,269.5C 767.4,266.289 765.066,263.289 762.5,260.5C 763.338,260.158 763.672,259.492 763.5,258.5 Z"/></g>
<g><path style="opacity:0.878" fill="#9a6733" d="M 592.5,263.5 C 591.089,265.914 589.089,267.581 586.5,268.5C 587.911,266.086 589.911,264.419 592.5,263.5 Z"/></g>
<g><path style="opacity:0.702" fill="#bc762e" d="M 686.5,255.5 C 686.5,257.833 686.5,260.167 686.5,262.5C 692.5,262.5 698.5,262.5 704.5,262.5C 704.5,260.167 704.5,257.833 704.5,255.5C 706.377,260.242 705.377,264.409 701.5,268C 702.464,269.725 703.131,271.559 703.5,273.5C 703.5,274.5 703.5,275.5 703.5,276.5C 698.167,276.5 692.833,276.5 687.5,276.5C 687.5,275.5 687.5,274.5 687.5,273.5C 687.869,271.559 688.536,269.725 689.5,268C 685.623,264.409 684.623,260.242 686.5,255.5 Z"/></g>
<g><path style="opacity:0.792" fill="#7d5634" d="M 586.5,268.5 C 586.573,270.027 585.906,271.027 584.5,271.5C 584.427,269.973 585.094,268.973 586.5,268.5 Z"/></g>
<g><path style="opacity:0.816" fill="#7d5233" d="M 792.5,272.5 C 794.58,276.165 795.413,280.165 795,284.5C 793.526,281.244 792.36,277.911 791.5,274.5C 791.328,273.508 791.662,272.842 792.5,272.5 Z"/></g>
<g><path style="opacity:0.718" fill="#9b6533" d="M 687.5,273.5 C 687.5,274.5 687.5,275.5 687.5,276.5C 692.833,276.5 698.167,276.5 703.5,276.5C 703.5,275.5 703.5,274.5 703.5,273.5C 704.537,274.93 705.204,276.597 705.5,278.5C 698.833,277.167 692.167,277.167 685.5,278.5C 685.796,276.597 686.463,274.93 687.5,273.5 Z"/></g>
<g><path style="opacity:0.455" fill="#6c4c36" d="M 349.5,276.5 C 351.027,276.427 352.027,277.094 352.5,278.5C 350.973,278.573 349.973,277.906 349.5,276.5 Z"/></g>
<g><path style="opacity:0.4" fill="#805939" d="M 451.5,257.5 C 451.5,270.833 451.5,284.167 451.5,297.5C 435.325,297.83 419.325,297.496 403.5,296.5C 419.167,296.5 434.833,296.5 450.5,296.5C 450.171,283.323 450.505,270.323 451.5,257.5 Z"/></g>
<g><path style="opacity:0.923" fill="#d48828" d="M 705.5,278.5 C 711.426,292.944 716.759,307.611 721.5,322.5C 716.695,323.487 711.695,323.821 706.5,323.5C 704.447,323.598 702.78,322.931 701.5,321.5C 703.607,320.532 705.941,320.198 708.5,320.5C 709.675,320.719 710.675,320.386 711.5,319.5C 706.162,306.825 700.828,294.158 695.5,281.5C 691.306,290.746 687.306,300.08 683.5,309.5C 680.287,309.81 677.287,309.477 674.5,308.5C 677.771,298.353 681.438,288.353 685.5,278.5C 692.167,277.167 698.833,277.167 705.5,278.5 Z"/></g>
<g><path style="opacity:0.294" fill="#4c3934" d="M 103.5,306.5 C 102.833,306.167 102.167,305.833 101.5,305.5C 101.369,304.624 101.702,303.957 102.5,303.5C 103.386,304.325 103.719,305.325 103.5,306.5 Z"/></g>
<g><path style="opacity:0.647" fill="#956637" d="M 403.5,313.5 C 419.325,312.504 435.325,312.17 451.5,312.5C 451.5,330.833 451.5,349.167 451.5,367.5C 451.167,367.5 450.833,367.5 450.5,367.5C 450.5,349.5 450.5,331.5 450.5,313.5C 434.833,313.5 419.167,313.5 403.5,313.5 Z"/></g>
<g><path style="opacity:0.455" fill="#714f36" d="M 598.5,312.5 C 600.027,312.427 601.027,313.094 601.5,314.5C 599.973,314.573 598.973,313.906 598.5,312.5 Z"/></g>
<g><path style="opacity:0.931" fill="#c4812e" d="M 674.5,308.5 C 677.287,309.477 680.287,309.81 683.5,309.5C 683.47,310.497 683.97,311.164 685,311.5C 693.206,313.841 701.04,316.841 708.5,320.5C 705.941,320.198 703.607,320.532 701.5,321.5C 695.156,318.912 688.989,315.912 683,312.5C 680.075,319.348 676.908,326.015 673.5,332.5C 671.721,330.656 669.388,329.99 666.5,330.5C 668.653,322.883 671.32,315.55 674.5,308.5 Z"/></g>
<g><path style="opacity:0.345" fill="#4a3935" d="M 122.5,313.5 C 123.167,313.5 123.833,313.5 124.5,313.5C 123.833,316.167 123.167,316.167 122.5,313.5 Z"/></g>
<g><path style="opacity:0.4" fill="#5c4336" d="M 82.5,312.5 C 82.6882,314.103 82.1882,315.437 81,316.5C 80.5357,315.906 80.369,315.239 80.5,314.5C 81.1667,313.833 81.8333,313.167 82.5,312.5 Z"/></g>
<g><path style="opacity:0.455" fill="#6f4e36" d="M 606.5,317.5 C 608.027,317.427 609.027,318.094 609.5,319.5C 607.973,319.573 606.973,318.906 606.5,317.5 Z"/></g>
<g><path style="opacity:0.804" fill="#be7f33" d="M 721.5,322.5 C 722.871,324.936 723.871,327.603 724.5,330.5C 721.612,329.99 719.279,330.656 717.5,332.5C 716.685,331.571 715.852,330.571 715,329.5C 703.718,336.557 692.218,343.224 680.5,349.5C 678.585,349.784 676.919,349.451 675.5,348.5C 686.762,340.526 698.429,333.026 710.5,326C 708.934,325.392 707.6,324.558 706.5,323.5C 711.695,323.821 716.695,323.487 721.5,322.5 Z"/></g>
<g><path style="opacity:0.978" fill="#df932a" d="M 666.5,330.5 C 669.388,329.99 671.721,330.656 673.5,332.5C 673.598,334.553 672.931,336.22 671.5,337.5C 668.941,337.802 666.607,337.468 664.5,336.5C 664.604,334.297 665.27,332.297 666.5,330.5 Z"/></g>
<g><path style="opacity:0.978" fill="#dd922b" d="M 724.5,330.5 C 725.73,332.297 726.396,334.297 726.5,336.5C 724.393,337.468 722.059,337.802 719.5,337.5C 718.069,336.22 717.402,334.553 717.5,332.5C 719.279,330.656 721.612,329.99 724.5,330.5 Z"/></g>
<g><path style="opacity:0.196" fill="#403435" d="M 512.5,332.5 C 512.5,333.5 512.5,334.5 512.5,335.5C 519.167,335.5 525.833,335.5 532.5,335.5C 525.687,336.491 518.687,336.825 511.5,336.5C 511.232,334.901 511.566,333.568 512.5,332.5 Z"/></g>
<g><path style="opacity:0.806" fill="#b17938" d="M 664.5,336.5 C 666.607,337.468 668.941,337.802 671.5,337.5C 671.065,340.157 670.065,342.491 668.5,344.5C 667.082,342.692 665.082,342.025 662.5,342.5C 662.595,340.214 663.262,338.214 664.5,336.5 Z"/></g>
<g><path style="opacity:0.806" fill="#b17938" d="M 726.5,336.5 C 727.738,338.214 728.405,340.214 728.5,342.5C 725.918,342.025 723.918,342.692 722.5,344.5C 720.935,342.491 719.935,340.157 719.5,337.5C 722.059,337.802 724.393,337.468 726.5,336.5 Z"/></g>
<g><path style="opacity:0.987" fill="#dc9433" d="M 662.5,342.5 C 665.082,342.025 667.082,342.692 668.5,344.5C 668.204,346.403 667.537,348.07 666.5,349.5C 664.265,349.795 662.265,349.461 660.5,348.5C 660.595,346.214 661.262,344.214 662.5,342.5 Z"/></g>
<g><path style="opacity:0.987" fill="#dc9333" d="M 728.5,342.5 C 729.738,344.214 730.405,346.214 730.5,348.5C 728.735,349.461 726.735,349.795 724.5,349.5C 723.463,348.07 722.796,346.403 722.5,344.5C 723.918,342.692 725.918,342.025 728.5,342.5 Z"/></g>
<g><path style="opacity:0.714" fill="#885c33" d="M 352.5,343.5 C 351.5,346.5 349.5,348.5 346.5,349.5C 348.167,347.167 350.167,345.167 352.5,343.5 Z"/></g>
<g><path style="opacity:0.808" fill="#9b6d3d" d="M 660.5,348.5 C 662.265,349.461 664.265,349.795 666.5,349.5C 665.65,351.494 665.15,353.494 665,355.5C 668.615,353.28 672.115,350.947 675.5,348.5C 676.919,349.451 678.585,349.784 680.5,349.5C 674.818,353.008 668.818,356.008 662.5,358.5C 662.414,357.504 662.748,356.671 663.5,356C 661.402,355.322 659.402,355.489 657.5,356.5C 658.129,353.603 659.129,350.936 660.5,348.5 Z"/></g>
<g><path style="opacity:0.808" fill="#ae793d" d="M 730.5,348.5 C 731.871,350.936 732.871,353.603 733.5,356.5C 731.389,355.258 729.389,355.258 727.5,356.5C 726.264,354.351 725.264,352.018 724.5,349.5C 726.735,349.795 728.735,349.461 730.5,348.5 Z"/></g>
<g><path style="opacity:0.647" fill="#a67035" d="M 505.5,352.5 C 510.99,351.834 516.657,351.501 522.5,351.5C 528.542,351.504 534.208,352.171 539.5,353.5C 528.248,352.523 516.914,352.189 505.5,352.5 Z"/></g>
<g><path style="opacity:0.878" fill="#7a5433" d="M 301.5,353.5 C 303.5,353.5 304.5,354.5 304.5,356.5C 303.167,355.833 302.167,354.833 301.5,353.5 Z"/></g>
<g><path style="opacity:0.992" fill="#dc973c" d="M 662.5,358.5 C 662.443,359.609 662.11,360.609 661.5,361.5C 659.585,361.784 657.919,361.451 656.5,360.5C 656.433,359.041 656.766,357.708 657.5,356.5C 659.402,355.489 661.402,355.322 663.5,356C 662.748,356.671 662.414,357.504 662.5,358.5 Z"/></g>
<g><path style="opacity:0.992" fill="#d3913c" d="M 733.5,356.5 C 734.234,357.708 734.567,359.041 734.5,360.5C 733.081,361.451 731.415,361.784 729.5,361.5C 728.559,359.95 727.893,358.284 727.5,356.5C 729.389,355.258 731.389,355.258 733.5,356.5 Z"/></g>
<g><path style="opacity:0.196" fill="#5e4537" d="M 80.5,365.5 C 79.968,368.46 79.3013,368.793 78.5,366.5C 79.1667,366.167 79.8333,365.833 80.5,365.5 Z"/></g>
<g><path style="opacity:0.102" fill="#423433" d="M 126.5,365.5 C 126.719,366.675 126.386,367.675 125.5,368.5C 124.702,368.043 124.369,367.376 124.5,366.5C 125.167,366.167 125.833,365.833 126.5,365.5 Z"/></g>
<g><path style="opacity:0.4" fill="#6a4c39" d="M 483.5,365.5 C 485.743,366.812 488.41,367.478 491.5,367.5C 494.585,367.456 497.585,367.122 500.5,366.5C 494.926,368.453 488.926,369.12 482.5,368.5C 482.263,367.209 482.596,366.209 483.5,365.5 Z"/></g>
<g><path style="opacity:0.4" fill="#674a38" d="M 543.5,365.5 C 549.208,367.386 555.208,368.053 561.5,367.5C 556.262,368.5 550.262,368.833 543.5,368.5C 543.5,367.5 543.5,366.5 543.5,365.5 Z"/></g>
<g><path style="opacity:0.996" fill="#c08744" d="M 656.5,360.5 C 657.919,361.451 659.585,361.784 661.5,361.5C 659.774,365.953 657.774,370.286 655.5,374.5C 654.209,374.737 653.209,374.404 652.5,373.5C 653.057,368.835 654.39,364.502 656.5,360.5 Z"/></g>
<g><path style="opacity:0.996" fill="#c18844" d="M 734.5,360.5 C 736.405,364.216 737.739,368.216 738.5,372.5C 738.179,374.048 737.179,374.715 735.5,374.5C 733.226,370.286 731.226,365.953 729.5,361.5C 731.415,361.784 733.081,361.451 734.5,360.5 Z"/></g>
<g><path style="opacity:0.816" fill="#936b47" d="M 652.5,373.5 C 653.209,374.404 654.209,374.737 655.5,374.5C 653.374,380.086 650.707,385.419 647.5,390.5C 648.078,384.74 649.745,379.073 652.5,373.5 Z"/></g>
<g><path style="opacity:0.816" fill="#946c47" d="M 738.5,372.5 C 740.572,378.215 742.572,384.048 744.5,390C 743.668,390.688 743.002,390.521 742.5,389.5C 739.879,384.594 737.546,379.594 735.5,374.5C 737.179,374.715 738.179,374.048 738.5,372.5 Z"/></g>
<g><path style="opacity:0.4" fill="#614738" d="M 86.5,403.5 C 84.9522,402.206 82.9522,401.539 80.5,401.5C 78.0478,401.539 76.0478,402.206 74.5,403.5C 73.596,402.791 73.2627,401.791 73.5,400.5C 78.1667,400.5 82.8333,400.5 87.5,400.5C 87.7373,401.791 87.404,402.791 86.5,403.5 Z"/></g>
<g><path style="opacity:0.4" fill="#624738" d="M 93.5,401.5 C 97.2984,400.517 101.298,400.183 105.5,400.5C 105.737,401.791 105.404,402.791 104.5,403.5C 104.5,403.167 104.5,402.833 104.5,402.5C 101.375,401.521 98.0419,401.187 94.5,401.5C 94.1667,401.5 93.8333,401.5 93.5,401.5 Z"/></g>
<g><path style="opacity:0.4" fill="#614738" d="M 325.5,403.5 C 323.952,402.206 321.952,401.539 319.5,401.5C 317.048,401.539 315.048,402.206 313.5,403.5C 312.596,402.791 312.263,401.791 312.5,400.5C 317.167,400.5 321.833,400.5 326.5,400.5C 326.737,401.791 326.404,402.791 325.5,403.5 Z"/></g>
<g><path style="opacity:0.4" fill="#543e36" d="M 471.5,402.5 C 470.348,401.375 469.348,401.375 468.5,402.5C 467.249,401.528 467.582,400.861 469.5,400.5C 470.713,400.747 471.38,401.414 471.5,402.5 Z"/></g>
<g><path style="opacity:0.4" fill="#624738" d="M 639.5,401.5 C 643.298,400.517 647.298,400.183 651.5,400.5C 651.737,401.791 651.404,402.791 650.5,403.5C 650.5,403.167 650.5,402.833 650.5,402.5C 647.375,401.521 644.042,401.187 640.5,401.5C 640.167,401.5 639.833,401.5 639.5,401.5 Z"/></g>
<g><path style="opacity:0.4" fill="#614738" d="M 688.5,403.5 C 686.952,402.206 684.952,401.539 682.5,401.5C 680.048,401.539 678.048,402.206 676.5,403.5C 675.596,402.791 675.263,401.791 675.5,400.5C 680.167,400.5 684.833,400.5 689.5,400.5C 689.737,401.791 689.404,402.791 688.5,403.5 Z"/></g>
<g><path style="opacity:0.957" fill="#c37f2c" d="M 86.5,403.5 C 85.1667,403.5 83.8333,403.5 82.5,403.5C 82.5,408.833 82.5,414.167 82.5,419.5C 81.5,419.5 80.5,419.5 79.5,419.5C 79.5,414.167 79.5,408.833 79.5,403.5C 77.8333,403.5 76.1667,403.5 74.5,403.5C 76.0478,402.206 78.0478,401.539 80.5,401.5C 82.9522,401.539 84.9522,402.206 86.5,403.5 Z"/></g>
<g><path style="opacity:0.647" fill="#a67035" d="M 93.5,401.5 C 93.8333,401.5 94.1667,401.5 94.5,401.5C 94.5,407.167 94.5,412.833 94.5,418.5C 97.8333,418.5 101.167,418.5 104.5,418.5C 104.5,418.833 104.5,419.167 104.5,419.5C 100.833,419.5 97.1667,419.5 93.5,419.5C 93.5,413.5 93.5,407.5 93.5,401.5 Z"/></g>
<g><path style="opacity:0.957" fill="#f09b1d" d="M 94.5,401.5 C 98.0419,401.187 101.375,401.521 104.5,402.5C 101.5,402.5 98.5,402.5 95.5,402.5C 95.5,404.833 95.5,407.167 95.5,409.5C 98.1667,409.5 100.833,409.5 103.5,409.5C 103.5,409.833 103.5,410.167 103.5,410.5C 100.833,410.5 98.1667,410.5 95.5,410.5C 95.5,412.833 95.5,415.167 95.5,417.5C 98.7131,417.19 101.713,417.523 104.5,418.5C 101.167,418.5 97.8333,418.5 94.5,418.5C 94.5,412.833 94.5,407.167 94.5,401.5 Z"/></g>
<g><path style="opacity:0.196" fill="#403435" d="M 114.5,401.5 C 112.55,406.735 111.883,412.402 112.5,418.5C 112.5,418.833 112.5,419.167 112.5,419.5C 111.51,413.355 111.177,407.022 111.5,400.5C 112.791,400.263 113.791,400.596 114.5,401.5 Z"/></g>
<g><path style="opacity:0.957" fill="#f09b1d" d="M 114.5,401.5 C 114.5,406.5 114.5,411.5 114.5,416.5C 116.969,417.317 119.635,417.817 122.5,418C 119.183,418.498 115.85,418.665 112.5,418.5C 111.883,412.402 112.55,406.735 114.5,401.5 Z"/></g>
<g><path style="opacity:0.4" fill="#755339" d="M 140.5,403.5 C 137.663,401.598 134.329,400.931 130.5,401.5C 130.5,407.167 130.5,412.833 130.5,418.5C 133.85,418.665 137.183,418.498 140.5,418C 137.635,417.817 134.969,417.317 132.5,416.5C 135.5,416.5 138.5,416.5 141.5,416.5C 141.5,417.5 141.5,418.5 141.5,419.5C 137.5,419.5 133.5,419.5 129.5,419.5C 129.5,413.167 129.5,406.833 129.5,400.5C 133.5,400.5 137.5,400.5 141.5,400.5C 141.737,401.791 141.404,402.791 140.5,403.5 Z"/></g>
<g><path style="opacity:0.957" fill="#d78c29" d="M 140.5,403.5 C 137.833,403.5 135.167,403.5 132.5,403.5C 132.5,405.167 132.5,406.833 132.5,408.5C 134.833,408.5 137.167,408.5 139.5,408.5C 137.492,410.083 135.159,411.083 132.5,411.5C 132.5,413.167 132.5,414.833 132.5,416.5C 134.969,417.317 137.635,417.817 140.5,418C 137.183,418.498 133.85,418.665 130.5,418.5C 130.5,412.833 130.5,407.167 130.5,401.5C 134.329,400.931 137.663,401.598 140.5,403.5 Z"/></g>
<g><path style="opacity:0.957" fill="#ae7331" d="M 153.5,400.5 C 155.857,400.337 158.19,400.503 160.5,401C 163.817,402.085 164.151,403.585 161.5,405.5C 155.423,402.04 151.757,403.706 150.5,410.5C 152.383,416.806 156.216,418.139 162,414.5C 163.951,416.137 163.784,417.637 161.5,419C 150.333,421.167 145.833,416.667 148,405.5C 149.406,403.256 151.239,401.59 153.5,400.5 Z"/></g>
<g><path style="opacity:0.957" fill="#ac7231" d="M 173.5,400.5 C 183.492,399.327 187.992,403.66 187,413.5C 184.185,419.169 179.685,421.002 173.5,419C 167.226,415.068 166.06,409.901 170,403.5C 171.145,402.364 172.312,401.364 173.5,400.5 Z M 175.5,403.5 C 181.656,403.487 184.49,406.487 184,412.5C 178.281,418.408 173.781,417.574 170.5,410C 171.269,407.074 172.935,404.907 175.5,403.5 Z"/></g>
<g><path style="opacity:0.196" fill="#3d3234" d="M 195.5,401.5 C 194.51,407.31 194.177,413.31 194.5,419.5C 193.183,413.322 193.183,406.988 194.5,400.5C 195.107,400.624 195.44,400.957 195.5,401.5 Z"/></g>
<g><path style="opacity:0.647" fill="#9d6a36" d="M 210.5,419.5 C 210.5,419.167 210.5,418.833 210.5,418.5C 211.833,413.167 211.833,407.833 210.5,402.5C 210.369,401.624 210.702,400.957 211.5,400.5C 211.833,403.667 212.167,406.833 212.5,410C 212.485,413.576 211.818,416.742 210.5,419.5 Z"/></g>
<g><path style="opacity:0.957" fill="#a76f31" d="M 233.5,400.5 C 235.857,400.337 238.19,400.503 240.5,401C 242.037,402.11 242.703,403.61 242.5,405.5C 240.4,405.523 238.567,404.856 237,403.5C 235.566,403.93 234.399,404.764 233.5,406C 236.778,407.648 239.945,409.481 243,411.5C 244.334,417 242.167,419.667 236.5,419.5C 233.333,419.916 230.999,418.75 229.5,416C 230.025,415.308 230.692,414.808 231.5,414.5C 234.691,416.968 237.691,416.968 240.5,414.5C 237.709,412.265 234.709,410.265 231.5,408.5C 229.971,405.282 230.638,402.615 233.5,400.5 Z"/></g>
<g><path style="opacity:0.957" fill="#ac7230" d="M 254.5,400.5 C 263.981,399.155 268.481,403.155 268,412.5C 265.419,419.187 260.586,421.354 253.5,419C 246.744,412.391 247.078,406.224 254.5,400.5 Z M 256.5,403.5 C 262.177,403.347 265.011,406.014 265,411.5C 260.667,418.167 256.333,418.167 252,411.5C 251.675,407.817 253.175,405.15 256.5,403.5 Z"/></g>
<g><path style="opacity:0.957" fill="#c7822b" d="M 295.5,413.5 C 297.729,417.055 300.396,417.388 303.5,414.5C 304.325,410.353 304.825,406.019 305,401.5C 305.499,406.489 305.666,411.489 305.5,416.5C 301.5,421.833 297.5,421.833 293.5,416.5C 293.334,411.489 293.501,406.489 294,401.5C 294.176,405.688 294.676,409.688 295.5,413.5 Z"/></g>
<g><path style="opacity:0.4" fill="#7a5638" d="M 295.5,413.5 C 294.676,409.688 294.176,405.688 294,401.5C 293.501,406.489 293.334,411.489 293.5,416.5C 292.512,411.36 292.179,406.026 292.5,400.5C 293.5,400.5 294.5,400.5 295.5,400.5C 295.5,404.833 295.5,409.167 295.5,413.5 Z"/></g>
<g><path style="opacity:0.647" fill="#8a5f37" d="M 305.5,416.5 C 305.666,411.489 305.499,406.489 305,401.5C 304.825,406.019 304.325,410.353 303.5,414.5C 303.5,409.833 303.5,405.167 303.5,400.5C 304.5,400.5 305.5,400.5 306.5,400.5C 306.821,406.026 306.488,411.36 305.5,416.5 Z"/></g>
<g><path style="opacity:0.957" fill="#c37f2c" d="M 325.5,403.5 C 323.833,403.5 322.167,403.5 320.5,403.5C 320.5,408.833 320.5,414.167 320.5,419.5C 319.5,419.5 318.5,419.5 317.5,419.5C 317.5,414.167 317.5,408.833 317.5,403.5C 316.167,403.5 314.833,403.5 313.5,403.5C 315.048,402.206 317.048,401.539 319.5,401.5C 321.952,401.539 323.952,402.206 325.5,403.5 Z"/></g>
<g><path style="opacity:0.957" fill="#ed9820" d="M 332.5,401.5 C 334.453,407.074 335.12,413.074 334.5,419.5C 332.547,413.926 331.88,407.926 332.5,401.5 Z"/></g>
<g><path style="opacity:0.196" fill="#403435" d="M 332.5,401.5 C 333.209,400.596 334.209,400.263 335.5,400.5C 335.823,407.022 335.49,413.355 334.5,419.5C 335.12,413.074 334.453,407.074 332.5,401.5 Z"/></g>
<g><path style="opacity:0.957" fill="#ad7330" d="M 347.5,400.5 C 355.088,399.455 359.754,402.622 361.5,410C 358.831,419.576 352.998,422.076 344,417.5C 339.861,410.598 341.027,404.931 347.5,400.5 Z M 348.5,403.5 C 355.771,403.036 358.604,406.369 357,413.5C 352.601,417.654 348.601,417.321 345,412.5C 344.333,410.833 344.333,409.167 345,407.5C 346.376,406.295 347.542,404.962 348.5,403.5 Z"/></g>
<g><path style="opacity:0.647" fill="#9f6b35" d="M 369.5,402.5 C 368.511,407.975 368.178,413.642 368.5,419.5C 367.183,413.322 367.183,406.988 368.5,400.5C 369.298,400.957 369.631,401.624 369.5,402.5 Z"/></g>
<g><path style="opacity:0.196" fill="#463735" d="M 382.5,401.5 C 380.882,405.084 379.882,409.084 379.5,413.5C 378.893,413.376 378.56,413.043 378.5,412.5C 379.483,408.702 379.817,404.702 379.5,400.5C 380.791,400.263 381.791,400.596 382.5,401.5 Z"/></g>
<g><path style="opacity:0.957" fill="#d98d27" d="M 382.5,401.5 C 382.666,407.842 382.5,414.175 382,420.5C 379.999,417.669 377.833,415.003 375.5,412.5C 376.348,411.375 377.348,411.375 378.5,412.5C 378.56,413.043 378.893,413.376 379.5,413.5C 379.882,409.084 380.882,405.084 382.5,401.5 Z"/></g>
<g><path style="opacity:0.957" fill="#f09b1d" d="M 446.5,403.5 C 446.5,408.5 446.5,413.5 446.5,418.5C 444.554,413.604 443.887,408.271 444.5,402.5C 441.09,401.342 443.423,401.175 451.5,402C 449.618,402.198 447.952,402.698 446.5,403.5 Z"/></g>
<g><path style="opacity:0.957" fill="#ac7230" d="M 468.5,402.5 C 469.348,401.375 470.348,401.375 471.5,402.5C 472.779,404.123 474.113,405.79 475.5,407.5C 476.833,405.5 478.167,403.5 479.5,401.5C 480.833,400.167 482.167,400.167 483.5,401.5C 478.921,406.653 476.587,412.653 476.5,419.5C 475.5,419.5 474.5,419.5 473.5,419.5C 473.665,416.482 473.498,413.482 473,410.5C 471.235,407.968 469.735,405.301 468.5,402.5 Z"/></g>
<g><path style="opacity:0.957" fill="#af7430" d="M 492.5,400.5 C 502.482,399.982 506.649,404.648 505,414.5C 503.2,418.235 500.2,419.902 496,419.5C 487.542,418.618 484.542,413.952 487,405.5C 488.406,403.256 490.239,401.59 492.5,400.5 Z M 493.5,403.5 C 501.543,404.02 503.876,407.854 500.5,415C 492.758,418.248 489.258,415.748 490,407.5C 490.69,405.65 491.856,404.316 493.5,403.5 Z"/></g>
<g><path style="opacity:0.196" fill="#403435" d="M 514.5,401.5 C 512.57,405.373 511.903,409.706 512.5,414.5C 511.514,410.03 511.181,405.363 511.5,400.5C 512.791,400.263 513.791,400.596 514.5,401.5 Z"/></g>
<g><path style="opacity:0.957" fill="#cb842a" d="M 514.5,401.5 C 514.191,406.267 514.691,410.934 516,415.5C 519.086,417.22 521.419,416.553 523,413.5C 523.499,409.514 523.666,405.514 523.5,401.5C 525.43,405.373 526.097,409.706 525.5,414.5C 525.163,418.333 522.996,420.333 519,420.5C 515.382,419.96 513.215,417.96 512.5,414.5C 511.903,409.706 512.57,405.373 514.5,401.5 Z"/></g>
<g><path style="opacity:0.4" fill="#684b39" d="M 523.5,401.5 C 524.209,400.596 525.209,400.263 526.5,400.5C 526.819,405.363 526.486,410.03 525.5,414.5C 526.097,409.706 525.43,405.373 523.5,401.5 Z"/></g>
<g><path style="opacity:0.647" fill="#8f6237" d="M 541.5,401.5 C 539.167,401.5 536.833,401.5 534.5,401.5C 534.334,407.176 534.501,412.843 535,418.5C 535.191,416.292 535.691,414.292 536.5,412.5C 536.5,414.833 536.5,417.167 536.5,419.5C 535.5,419.5 534.5,419.5 533.5,419.5C 533.5,413.167 533.5,406.833 533.5,400.5C 536.385,400.194 539.052,400.527 541.5,401.5 Z"/></g>
<g><path style="opacity:0.957" fill="#c37f2d" d="M 541.5,401.5 C 543.017,401.511 544.184,402.177 545,403.5C 545.891,406.934 545.391,410.101 543.5,413C 544.818,414.99 546.152,416.99 547.5,419C 546.167,419.667 544.833,419.667 543.5,419C 541.887,415.88 539.553,413.713 536.5,412.5C 535.691,414.292 535.191,416.292 535,418.5C 534.501,412.843 534.334,407.176 534.5,401.5C 536.833,401.5 539.167,401.5 541.5,401.5 Z M 536.5,403.5 C 541.244,403.228 542.911,405.228 541.5,409.5C 539.833,409.5 538.167,409.5 536.5,409.5C 536.5,407.5 536.5,405.5 536.5,403.5 Z"/></g>
<g><path style="opacity:0.957" fill="#dc8f26" d="M 575.5,402.5 C 572.5,402.5 569.5,402.5 566.5,402.5C 566.5,404.833 566.5,407.167 566.5,409.5C 575.833,409.833 575.833,410.167 566.5,410.5C 566.5,413.5 566.5,416.5 566.5,419.5C 564.544,413.588 563.877,407.255 564.5,400.5C 568.649,399.92 572.316,400.586 575.5,402.5 Z"/></g>
<g><path style="opacity:0.196" fill="#403435" d="M 584.5,401.5 C 582.547,407.074 581.88,413.074 582.5,419.5C 581.51,413.355 581.177,407.022 581.5,400.5C 582.791,400.263 583.791,400.596 584.5,401.5 Z"/></g>
<g><path style="opacity:0.957" fill="#ed9820" d="M 584.5,401.5 C 585.12,407.926 584.453,413.926 582.5,419.5C 581.88,413.074 582.547,407.074 584.5,401.5 Z"/></g>
<g><path style="opacity:0.957" fill="#de9025" d="M 598.5,406.5 C 598.5,407.833 597.833,408.5 596.5,408.5C 596.217,407.711 595.717,407.044 595,406.5C 594.501,410.821 594.334,415.154 594.5,419.5C 593.182,416.742 592.515,413.576 592.5,410C 590.977,399.393 592.977,398.226 598.5,406.5 Z"/></g>
<g><path style="opacity:0.4" fill="#694c39" d="M 607.5,401.5 C 605.882,405.084 604.882,409.084 604.5,413.5C 603.893,413.376 603.56,413.043 603.5,412.5C 604.483,408.702 604.817,404.702 604.5,400.5C 605.791,400.263 606.791,400.596 607.5,401.5 Z"/></g>
<g><path style="opacity:0.957" fill="#bb7b2e" d="M 607.5,401.5 C 607.666,407.842 607.5,414.175 607,420.5C 603.664,416.332 600.164,412.332 596.5,408.5C 597.833,408.5 598.5,407.833 598.5,406.5C 600.633,408.091 602.299,410.091 603.5,412.5C 603.56,413.043 603.893,413.376 604.5,413.5C 604.882,409.084 605.882,405.084 607.5,401.5 Z"/></g>
<g><path style="opacity:0.647" fill="#a67035" d="M 639.5,401.5 C 639.833,401.5 640.167,401.5 640.5,401.5C 640.5,407.167 640.5,412.833 640.5,418.5C 643.833,418.5 647.167,418.5 650.5,418.5C 650.5,418.833 650.5,419.167 650.5,419.5C 646.833,419.5 643.167,419.5 639.5,419.5C 639.5,413.5 639.5,407.5 639.5,401.5 Z"/></g>
<g><path style="opacity:0.957" fill="#f09b1d" d="M 640.5,401.5 C 644.042,401.187 647.375,401.521 650.5,402.5C 647.5,402.5 644.5,402.5 641.5,402.5C 641.5,404.833 641.5,407.167 641.5,409.5C 644.167,409.5 646.833,409.5 649.5,409.5C 649.5,409.833 649.5,410.167 649.5,410.5C 646.833,410.5 644.167,410.5 641.5,410.5C 641.5,412.833 641.5,415.167 641.5,417.5C 644.713,417.19 647.713,417.523 650.5,418.5C 647.167,418.5 643.833,418.5 640.5,418.5C 640.5,412.833 640.5,407.167 640.5,401.5 Z"/></g>
<g><path style="opacity:0.4" fill="#694c39" d="M 666.5,401.5 C 663.833,401.5 661.167,401.5 658.5,401.5C 658.5,407.5 658.5,413.5 658.5,419.5C 657.51,413.355 657.177,407.022 657.5,400.5C 660.713,400.19 663.713,400.523 666.5,401.5 Z"/></g>
<g><path style="opacity:0.957" fill="#bc7b2e" d="M 666.5,401.5 C 669.754,402.673 670.92,405.006 670,408.5C 669.365,409.966 668.531,411.3 667.5,412.5C 668.833,414.5 670.167,416.5 671.5,418.5C 670.277,419.614 668.944,419.781 667.5,419C 666.167,417 664.833,415 663.5,413C 662.552,412.517 661.552,412.351 660.5,412.5C 661.01,415.388 660.344,417.721 658.5,419.5C 658.5,413.5 658.5,407.5 658.5,401.5C 661.167,401.5 663.833,401.5 666.5,401.5 Z M 660.5,403.5 C 663.657,403.079 665.99,404.245 667.5,407C 665.679,409.137 663.346,409.97 660.5,409.5C 660.5,407.5 660.5,405.5 660.5,403.5 Z"/></g>
<g><path style="opacity:0.957" fill="#c37f2c" d="M 688.5,403.5 C 686.833,403.5 685.167,403.5 683.5,403.5C 683.5,408.833 683.5,414.167 683.5,419.5C 682.5,419.5 681.5,419.5 680.5,419.5C 680.5,414.167 680.5,408.833 680.5,403.5C 679.167,403.5 677.833,403.5 676.5,403.5C 678.048,402.206 680.048,401.539 682.5,401.5C 684.952,401.539 686.952,402.206 688.5,403.5 Z"/></g>
<g><path style="opacity:0.957" fill="#ed9820" d="M 695.5,401.5 C 697.453,407.074 698.12,413.074 697.5,419.5C 695.547,413.926 694.88,407.926 695.5,401.5 Z"/></g>
<g><path style="opacity:0.196" fill="#403435" d="M 695.5,401.5 C 696.209,400.596 697.209,400.263 698.5,400.5C 698.823,407.022 698.49,413.355 697.5,419.5C 698.12,413.074 697.453,407.074 695.5,401.5 Z"/></g>
<g><path style="opacity:0.647" fill="#885e37" d="M 714.5,401.5 C 711.833,401.5 709.167,401.5 706.5,401.5C 706.334,407.176 706.501,412.843 707,418.5C 707.495,416.527 707.662,414.527 707.5,412.5C 709.5,412.5 711.5,412.5 713.5,412.5C 712.081,413.451 710.415,413.784 708.5,413.5C 708.5,415.5 708.5,417.5 708.5,419.5C 707.5,419.5 706.5,419.5 705.5,419.5C 705.5,413.167 705.5,406.833 705.5,400.5C 708.713,400.19 711.713,400.523 714.5,401.5 Z"/></g>
<g><path style="opacity:0.957" fill="#c27f2d" d="M 714.5,401.5 C 717.138,402.242 718.471,404.075 718.5,407C 718.384,410.281 716.717,412.115 713.5,412.5C 711.5,412.5 709.5,412.5 707.5,412.5C 707.662,414.527 707.495,416.527 707,418.5C 706.501,412.843 706.334,407.176 706.5,401.5C 709.167,401.5 711.833,401.5 714.5,401.5 Z M 708.5,403.5 C 711.712,403.106 714.046,404.272 715.5,407C 713.906,409.381 711.573,410.547 708.5,410.5C 708.5,408.167 708.5,405.833 708.5,403.5 Z"/></g>
<g><path style="opacity:0.647" fill="#9f6b36" d="M 104.5,402.5 C 104.5,402.833 104.5,403.167 104.5,403.5C 101.833,403.5 99.1667,403.5 96.5,403.5C 96.5,405.167 96.5,406.833 96.5,408.5C 99.0593,408.198 101.393,408.532 103.5,409.5C 100.833,409.5 98.1667,409.5 95.5,409.5C 95.5,407.167 95.5,404.833 95.5,402.5C 98.5,402.5 101.5,402.5 104.5,402.5 Z"/></g>
<g><path style="opacity:0.957" fill="#da8d26" d="M 195.5,401.5 C 196.674,402.514 197.34,403.847 197.5,405.5C 197.5,406.833 197.5,408.167 197.5,409.5C 197.119,413.119 196.119,416.452 194.5,419.5C 194.177,413.31 194.51,407.31 195.5,401.5 Z"/></g>
<g><path style="opacity:0.957" fill="#db8e26" d="M 210.5,402.5 C 211.833,407.833 211.833,413.167 210.5,418.5C 210.665,414.818 210.499,411.152 210,407.5C 209.283,408.044 208.783,408.711 208.5,409.5C 207.662,409.158 207.328,408.492 207.5,407.5C 208.11,405.566 209.11,403.899 210.5,402.5 Z"/></g>
<g><path style="opacity:0.957" fill="#de9026" d="M 369.5,402.5 C 371.167,403.5 372.5,404.833 373.5,406.5C 373.5,407.833 372.833,408.5 371.5,408.5C 371.5,408.167 371.5,407.833 371.5,407.5C 371.44,406.957 371.107,406.624 370.5,406.5C 369.508,410.783 369.174,415.116 369.5,419.5C 369.167,419.5 368.833,419.5 368.5,419.5C 368.178,413.642 368.511,407.975 369.5,402.5 Z"/></g>
<g><path style="opacity:0.957" fill="#b5772f" d="M 426.5,400.5 C 427.376,400.369 428.043,400.702 428.5,401.5C 430.894,407.287 433.56,412.954 436.5,418.5C 434.37,419.777 432.704,419.277 431.5,417C 430,416.833 428.5,416.667 427,416.5C 424.194,416.626 421.86,417.626 420,419.5C 419.5,419.167 419,418.833 418.5,418.5C 421.181,412.474 423.848,406.474 426.5,400.5 Z M 426.5,407.5 C 427.167,407.833 427.833,408.167 428.5,408.5C 428.893,410.284 429.559,411.95 430.5,413.5C 428.265,413.795 426.265,413.461 424.5,412.5C 425.537,411.07 426.204,409.403 426.5,407.5 Z"/></g>
<g><path style="opacity:0.647" fill="#9f6b36" d="M 650.5,402.5 C 650.5,402.833 650.5,403.167 650.5,403.5C 647.833,403.5 645.167,403.5 642.5,403.5C 642.5,405.167 642.5,406.833 642.5,408.5C 645.059,408.198 647.393,408.532 649.5,409.5C 646.833,409.5 644.167,409.5 641.5,409.5C 641.5,407.167 641.5,404.833 641.5,402.5C 644.5,402.5 647.5,402.5 650.5,402.5 Z"/></g>
<g><path style="opacity:0.4" fill="#795539" d="M 446.5,403.5 C 447.952,402.698 449.618,402.198 451.5,402C 443.423,401.175 441.09,401.342 444.5,402.5C 443.887,408.271 444.554,413.604 446.5,418.5C 445.791,419.404 444.791,419.737 443.5,419.5C 443.5,414.167 443.5,408.833 443.5,403.5C 441.833,403.5 440.167,403.5 438.5,403.5C 438.5,402.5 438.5,401.5 438.5,400.5C 443.167,400.5 447.833,400.5 452.5,400.5C 452.5,401.5 452.5,402.5 452.5,403.5C 450.5,403.5 448.5,403.5 446.5,403.5 Z"/></g>
<g><path style="opacity:0.4" fill="#6f5039" d="M 371.5,407.5 C 370.833,411.5 370.167,415.5 369.5,419.5C 369.174,415.116 369.508,410.783 370.5,406.5C 371.107,406.624 371.44,406.957 371.5,407.5 Z"/></g>
<g><path style="opacity:0.196" fill="#4f3c35" d="M 428.5,408.5 C 427.833,408.167 427.167,407.833 426.5,407.5C 427.301,405.207 427.968,405.54 428.5,408.5 Z"/></g>
<g><path style="opacity:0.196" fill="#3c3234" d="M 596.5,408.5 C 595.833,412.167 595.167,415.833 594.5,419.5C 594.334,415.154 594.501,410.821 595,406.5C 595.717,407.044 596.217,407.711 596.5,408.5 Z"/></g>
<g><path style="opacity:0.4" fill="#694c39" d="M 210.5,418.5 C 210.5,418.833 210.5,419.167 210.5,419.5C 209.833,416.5 209.167,413.5 208.5,410.5C 208.5,410.167 208.5,409.833 208.5,409.5C 208.783,408.711 209.283,408.044 210,407.5C 210.499,411.152 210.665,414.818 210.5,418.5 Z"/></g>
<g><path style="opacity:0.878" fill="#9c6832" d="M 373.5,406.5 C 375.914,407.911 377.581,409.911 378.5,412.5C 377.348,411.375 376.348,411.375 375.5,412.5C 373.833,411.5 372.5,410.167 371.5,408.5C 372.833,408.5 373.5,407.833 373.5,406.5 Z"/></g>
<g><path style="opacity:0.4" fill="#845c38" d="M 575.5,402.5 C 573.052,403.473 570.385,403.806 567.5,403.5C 567.5,405.167 567.5,406.833 567.5,408.5C 569.833,408.5 572.167,408.5 574.5,408.5C 574.5,409.5 574.5,410.5 574.5,411.5C 572.167,411.5 569.833,411.5 567.5,411.5C 567.806,414.385 567.473,417.052 566.5,419.5C 566.5,416.5 566.5,413.5 566.5,410.5C 575.833,410.167 575.833,409.833 566.5,409.5C 566.5,407.167 566.5,404.833 566.5,402.5C 569.5,402.5 572.5,402.5 575.5,402.5 Z"/></g>
<g><path style="opacity:0.957" fill="#ab7231" d="M 726.5,400.5 C 730.64,399.715 733.973,400.881 736.5,404C 735.975,404.692 735.308,405.192 734.5,405.5C 732.038,402.947 729.705,402.947 727.5,405.5C 730.208,407.611 733.041,409.611 736,411.5C 736.944,414.347 736.444,416.847 734.5,419C 731.5,419.667 728.5,419.667 725.5,419C 722.921,417.388 722.921,415.888 725.5,414.5C 728.288,417.075 730.955,417.075 733.5,414.5C 730.917,412.235 728.084,410.235 725,408.5C 724.109,405.502 724.609,402.836 726.5,400.5 Z"/></g>
<g><path style="opacity:0.196" fill="#584237" d="M 536.5,403.5 C 536.5,405.5 536.5,407.5 536.5,409.5C 538.167,409.5 539.833,409.5 541.5,409.5C 539.735,410.461 537.735,410.795 535.5,410.5C 535.198,407.941 535.532,405.607 536.5,403.5 Z"/></g>
<g><path style="opacity:0.957" fill="#b8792f" d="M 620.5,400.5 C 623.93,400.107 627.096,400.773 630,402.5C 630.483,403.448 630.649,404.448 630.5,405.5C 628.253,405.085 626.086,404.418 624,403.5C 618.455,404.578 616.455,407.911 618,413.5C 620.559,416.349 623.726,417.183 627.5,416C 629.037,414.89 629.703,413.39 629.5,411.5C 627.396,411.799 625.396,411.466 623.5,410.5C 626.768,409.513 630.102,409.18 633.5,409.5C 632.143,419.349 626.809,422.183 617.5,418C 614.64,414.319 613.807,410.152 615,405.5C 616.406,403.256 618.239,401.59 620.5,400.5 Z"/></g>
<g><path style="opacity:0.4" fill="#6f4f39" d="M 103.5,410.5 C 101.393,411.468 99.0593,411.802 96.5,411.5C 96.5,413.167 96.5,414.833 96.5,416.5C 99.5,416.5 102.5,416.5 105.5,416.5C 105.737,417.791 105.404,418.791 104.5,419.5C 104.5,419.167 104.5,418.833 104.5,418.5C 101.713,417.523 98.7131,417.19 95.5,417.5C 95.5,415.167 95.5,412.833 95.5,410.5C 98.1667,410.5 100.833,410.5 103.5,410.5 Z"/></g>
<g><path style="opacity:0.4" fill="#604738" d="M 139.5,408.5 C 140.404,409.209 140.737,410.209 140.5,411.5C 137.833,411.5 135.167,411.5 132.5,411.5C 135.159,411.083 137.492,410.083 139.5,408.5 Z"/></g>
<g><path style="opacity:0.4" fill="#6f4f39" d="M 649.5,410.5 C 647.393,411.468 645.059,411.802 642.5,411.5C 642.5,413.167 642.5,414.833 642.5,416.5C 645.5,416.5 648.5,416.5 651.5,416.5C 651.737,417.791 651.404,418.791 650.5,419.5C 650.5,419.167 650.5,418.833 650.5,418.5C 647.713,417.523 644.713,417.19 641.5,417.5C 641.5,415.167 641.5,412.833 641.5,410.5C 644.167,410.5 646.833,410.5 649.5,410.5 Z"/></g>
<g><path style="opacity:0.957" fill="#a97031" d="M 197.5,405.5 C 199.558,407.927 201.391,410.593 203,413.5C 204.363,411.316 205.863,409.316 207.5,407.5C 207.328,408.492 207.662,409.158 208.5,409.5C 208.5,409.833 208.5,410.167 208.5,410.5C 207.18,413.806 205.347,416.806 203,419.5C 200.888,416.273 199.055,412.94 197.5,409.5C 197.5,408.167 197.5,406.833 197.5,405.5 Z"/></g>
<g><path style="opacity:0.957" fill="#ae7330" d="M 392.5,400.5 C 394.857,400.337 397.19,400.503 399.5,401C 401.037,402.11 401.703,403.61 401.5,405.5C 399.4,405.523 397.567,404.856 396,403.5C 394.5,403.667 393.667,404.5 393.5,406C 396.281,407.828 399.114,409.662 402,411.5C 402.944,414.347 402.444,416.847 400.5,419C 397.5,419.667 394.5,419.667 391.5,419C 389.963,417.89 389.297,416.39 389.5,414.5C 391.747,414.915 393.914,415.582 396,416.5C 397.662,416.612 398.829,415.946 399.5,414.5C 396.917,412.235 394.084,410.235 391,408.5C 389.296,405.527 389.796,402.86 392.5,400.5 Z"/></g>
<g><path style="opacity:0.196" fill="#4a3a36" d="M 424.5,412.5 C 426.265,413.461 428.265,413.795 430.5,413.5C 430.463,414.302 429.463,414.635 427.5,414.5C 426.167,414.167 424.833,413.833 423.5,413.5C 423.624,412.893 423.957,412.56 424.5,412.5 Z"/></g>
<g><path style="opacity:0.647" fill="#926437" d="M 114.5,416.5 C 117.5,416.5 120.5,416.5 123.5,416.5C 123.5,417.5 123.5,418.5 123.5,419.5C 119.833,419.5 116.167,419.5 112.5,419.5C 112.5,419.167 112.5,418.833 112.5,418.5C 115.85,418.665 119.183,418.498 122.5,418C 119.635,417.817 116.969,417.317 114.5,416.5 Z"/></g>
<g><path style="opacity:0.647" fill="#8d6137" d="M 274.5,400.5 C 275.5,400.5 276.5,400.5 277.5,400.5C 277.5,405.833 277.5,411.167 277.5,416.5C 280.5,416.5 283.5,416.5 286.5,416.5C 286.5,417.5 286.5,418.5 286.5,419.5C 282.5,419.5 278.5,419.5 274.5,419.5C 274.5,413.167 274.5,406.833 274.5,400.5 Z"/></g>
<g><path style="opacity:0.957" fill="#f09b1d" d="M 275.5,401.5 C 276.488,406.64 276.821,411.974 276.5,417.5C 279.518,417.335 282.518,417.502 285.5,418C 282.183,418.498 278.85,418.665 275.5,418.5C 275.5,412.833 275.5,407.167 275.5,401.5 Z"/></g>
</svg>
